<svg width="135" height="35" viewBox="0 0 135 35" fill="none" xmlns="http://www.w3.org/2000/svg">
<path d="M23.0156 29.7812V34H0.703125V0.976562H5.97656V29.7812H23.0156ZM59.6953 17.3359C59.6953 20.8359 59.0156 23.8672 57.6562 26.4297C56.3125 28.9922 54.4062 30.9766 51.9375 32.3828C49.4688 33.7734 46.5469 34.4688 43.1719 34.4688C39.7812 34.4688 36.8516 33.7812 34.3828 32.4062C31.9297 31.0312 30.0391 29.0625 28.7109 26.5C27.3984 23.9375 26.7422 20.8828 26.7422 17.3359C26.7422 13.8047 27.3906 10.7891 28.6875 8.28906C30 5.77344 31.8828 3.84375 34.3359 2.5C36.8047 1.15625 39.7656 0.484375 43.2188 0.484375C46.6406 0.484375 49.5781 1.15625 52.0312 2.5C54.5 3.82813 56.3906 5.75 57.7031 8.26562C59.0312 10.7656 59.6953 13.7891 59.6953 17.3359ZM54.3047 17.3359C54.3047 13.4141 53.3359 10.3359 51.3984 8.10156C49.4609 5.85156 46.7344 4.72656 43.2188 4.72656C39.6719 4.72656 36.9297 5.83594 34.9922 8.05469C33.0547 10.2578 32.0859 13.3516 32.0859 17.3359C32.0859 19.9766 32.5234 22.2656 33.3984 24.2031C34.2891 26.125 35.5625 27.6094 37.2188 28.6562C38.8906 29.7031 40.875 30.2266 43.1719 30.2266C46.75 30.2266 49.5 29.1094 51.4219 26.875C53.3438 24.625 54.3047 21.4453 54.3047 17.3359ZM80.9297 30.25C82.9609 30.25 84.875 29.9453 86.6719 29.3359C88.4844 28.7109 89.9297 27.8906 91.0078 26.875V21.3906H81.75V17.1719H95.8828V28.8203C94.1328 30.6016 91.9375 31.9922 89.2969 32.9922C86.6719 33.9766 83.8594 34.4688 80.8594 34.4688C77.375 34.4688 74.3906 33.7812 71.9062 32.4062C69.4219 31.0312 67.5156 29.0625 66.1875 26.5C64.8594 23.9375 64.1953 20.8828 64.1953 17.3359C64.1953 11.9453 65.6328 7.78906 68.5078 4.86719C71.3984 1.94531 75.4844 0.484375 80.7656 0.484375C84.5 0.484375 87.5391 1.13281 89.8828 2.42969C92.2266 3.72656 93.9844 5.76562 95.1562 8.54688L90.1875 10.0234C89.3281 8.21094 88.1016 6.875 86.5078 6.01562C84.9297 5.15625 82.9922 4.72656 80.6953 4.72656C77.0703 4.72656 74.3047 5.82812 72.3984 8.03125C70.4922 10.2188 69.5391 13.3203 69.5391 17.3359C69.5391 21.3672 70.5391 24.5312 72.5391 26.8281C74.5547 29.1094 77.3516 30.25 80.9297 30.25ZM134.414 17.3359C134.414 20.8359 133.734 23.8672 132.375 26.4297C131.031 28.9922 129.125 30.9766 126.656 32.3828C124.188 33.7734 121.266 34.4688 117.891 34.4688C114.5 34.4688 111.57 33.7812 109.102 32.4062C106.648 31.0312 104.758 29.0625 103.43 26.5C102.117 23.9375 101.461 20.8828 101.461 17.3359C101.461 13.8047 102.109 10.7891 103.406 8.28906C104.719 5.77344 106.602 3.84375 109.055 2.5C111.523 1.15625 114.484 0.484375 117.938 0.484375C121.359 0.484375 124.297 1.15625 126.75 2.5C129.219 3.82813 131.109 5.75 132.422 8.26562C133.75 10.7656 134.414 13.7891 134.414 17.3359ZM129.023 17.3359C129.023 13.4141 128.055 10.3359 126.117 8.10156C124.18 5.85156 121.453 4.72656 117.938 4.72656C114.391 4.72656 111.648 5.83594 109.711 8.05469C107.773 10.2578 106.805 13.3516 106.805 17.3359C106.805 19.9766 107.242 22.2656 108.117 24.2031C109.008 26.125 110.281 27.6094 111.938 28.6562C113.609 29.7031 115.594 30.2266 117.891 30.2266C121.469 30.2266 124.219 29.1094 126.141 26.875C128.062 24.625 129.023 21.4453 129.023 17.3359Z" fill="white"/>
</svg>
