<svg width="16" height="16" viewBox="0 0 16 16" fill="none" xmlns="http://www.w3.org/2000/svg">
<path d="M7.99974 16C4.9649 16.0018 2.22811 14.1744 1.06649 11.3707C-0.0951344 8.56698 0.547395 5.33955 2.69424 3.19448C4.58971 1.29901 7.35242 0.558746 9.94168 1.25254C12.5309 1.94633 14.5534 3.96877 15.2472 6.55804C15.941 9.1473 15.2007 11.91 13.3052 13.8055C11.9008 15.2162 9.99036 16.0065 7.99974 16ZM1.99974 8.62898C2.03522 11.9299 4.73057 14.5821 8.03164 14.5645C11.3327 14.5467 13.9994 11.8656 13.9994 8.56448C13.9994 5.26336 11.3327 2.58232 8.03164 2.56448C4.73057 2.54683 2.03522 5.19905 1.99974 8.49998V8.62898ZM6.05649 11.5L4.99974 10.4425L6.94224 8.49998L4.99974 6.55748L6.05724 5.49998L7.99974 7.44248L9.94224 5.49998L10.9997 6.55748L9.05724 8.49998L10.9997 10.4425L9.94299 11.5L7.99974 9.55748L6.05724 11.5H6.05649Z" fill="#2C43A1"/>
</svg>
