<?xml version="1.0" encoding="utf-8"?><svg xmlns="http://www.w3.org/2000/svg" xmlns:xlink="http://www.w3.org/1999/xlink"><symbol viewBox="0 0 135 35" id="logo" xmlns="http://www.w3.org/2000/svg"><path d="M23.016 29.781V34H.703V.977h5.274V29.78h17.039zm36.68-12.445c0 3.5-.68 6.531-2.04 9.094-1.343 2.562-3.25 4.547-5.718 5.953-2.47 1.39-5.391 2.086-8.766 2.086-3.39 0-6.32-.688-8.79-2.063-2.452-1.375-4.343-3.343-5.671-5.906-1.313-2.563-1.969-5.617-1.969-9.164 0-3.531.649-6.547 1.945-9.047C30 5.773 31.884 3.844 34.337 2.5 36.806 1.156 39.767.484 43.22.484c3.422 0 6.36.672 8.812 2.016 2.469 1.328 4.36 3.25 5.672 5.766 1.328 2.5 1.992 5.523 1.992 9.07zm-5.391 0c0-3.922-.97-7-2.907-9.234-1.937-2.25-4.664-3.375-8.18-3.375-3.546 0-6.288 1.109-8.226 3.328-1.937 2.203-2.906 5.297-2.906 9.28 0 2.642.437 4.93 1.312 6.868.891 1.922 2.164 3.406 3.82 4.453 1.673 1.047 3.657 1.57 5.954 1.57 3.578 0 6.328-1.117 8.25-3.351 1.922-2.25 2.883-5.43 2.883-9.54zM80.93 30.25c2.03 0 3.945-.305 5.742-.914 1.812-.625 3.258-1.445 4.336-2.461v-5.484H81.75v-4.22h14.133v11.65c-1.75 1.78-3.945 3.171-6.586 4.171-2.625.985-5.438 1.477-8.438 1.477-3.484 0-6.468-.688-8.953-2.063-2.484-1.375-4.39-3.343-5.719-5.906-1.328-2.563-1.992-5.617-1.992-9.164 0-5.39 1.438-9.547 4.313-12.469C71.398 1.945 75.484.484 80.766.484c3.734 0 6.773.649 9.117 1.946 2.344 1.297 4.101 3.336 5.273 6.117l-4.969 1.476c-.859-1.812-2.085-3.148-3.68-4.007-1.577-.86-3.515-1.29-5.812-1.29-3.625 0-6.39 1.102-8.297 3.305-1.906 2.188-2.859 5.29-2.859 9.305 0 4.031 1 7.195 3 9.492 2.016 2.281 4.813 3.422 8.39 3.422zm53.484-12.914c0 3.5-.68 6.531-2.039 9.094-1.344 2.562-3.25 4.547-5.719 5.953-2.468 1.39-5.39 2.086-8.765 2.086-3.391 0-6.321-.688-8.789-2.063-2.454-1.375-4.344-3.343-5.672-5.906-1.313-2.563-1.969-5.617-1.969-9.164 0-3.531.648-6.547 1.945-9.047 1.313-2.516 3.196-4.445 5.649-5.789 2.468-1.344 5.429-2.016 8.883-2.016 3.421 0 6.359.672 8.812 2.016 2.469 1.328 4.359 3.25 5.672 5.766 1.328 2.5 1.992 5.523 1.992 9.07zm-5.391 0c0-3.922-.968-7-2.906-9.234-1.937-2.25-4.664-3.375-8.179-3.375-3.547 0-6.29 1.109-8.227 3.328-1.938 2.203-2.906 5.297-2.906 9.28 0 2.642.437 4.93 1.312 6.868.891 1.922 2.164 3.406 3.821 4.453 1.671 1.047 3.656 1.57 5.953 1.57 3.578 0 6.328-1.117 8.25-3.351 1.921-2.25 2.882-5.43 2.882-9.54z"/></symbol><symbol viewBox="0 0 15 13" id="mail" xmlns="http://www.w3.org/2000/svg"><g clip-path="url(#bclip0)"><path d="M0 0h14.886v12.901H0z"/><path d="M14.754.922L10.24 6.45l4.514 5.529c.082-.21.132-.442.132-.69V1.612c0-.249-.05-.481-.132-.691zM8.368 7.238l5.77-7.076a1.095 1.095 0 0 0-.56-.162H1.307c-.201 0-.39.06-.56.162l5.77 7.076c.51.629 1.34.629 1.85 0zM.131.922c-.082.21-.131.442-.131.69v9.676c0 .248.05.48.131.691L4.646 6.45.13.922z"/><path d="M8.985 7.998c-.85 1.048-2.234 1.048-3.084 0l-.639-.788-4.514 5.53c.17.1.359.16.56.16h12.27c.2 0 .39-.06.56-.16L9.623 7.21l-.638.788z"/></g><defs><clipPath id="bclip0"><path d="M0 0h14.886v12.901H0z"/></clipPath></defs></symbol><symbol viewBox="0 0 13 13" id="phone" xmlns="http://www.w3.org/2000/svg"><path d="M4.024 5.582C4.348 6.94 6.1 8.624 7.4 8.947c.584.13 1.234-.194 1.428-.776.26-.842 1.364-1.1 2.013-.453L12.66 9.53c.455.453.455 1.23 0 1.747l-1.234 1.23c-1.298 1.294-4.74-.13-7.791-3.172C.582 6.294-.781 2.864.452 1.57L1.686.34c.455-.452 1.234-.452 1.753 0l1.818 1.813c.65.647.39 1.747-.454 2.006-.585.194-.974.841-.78 1.424z"/></symbol></svg>